<?xml version="1.0" encoding="UTF-8"?><svg xmlns="http://www.w3.org/2000/svg" xmlns:xlink="http://www.w3.org/1999/xlink" version="1.1" id="Layer_1" x="0px" y="0px" viewBox="0 0 1024 234" style="enable-background:new 0 0 1024 234;" xml:space="preserve" width="100%" height="100%"><style type="text/css"> .st0{fill:#FFFFFF;} </style><g id="Synopsys_logo_2_"><g><path class="st0" d="M86.8,36.3c0-6.6-3.3-11.5-17.9-11.5C54.3,24.8,51,29.7,51,36.3v17.9c0,5.4,1.9,10.9,7.1,15.3l49.5,42.4 c7.1,5.9,11.3,13.2,11.3,20.7l0,26.9c0,16-18.9,25-50,25c-34.4,0-50.9-7.8-50.9-25v-23.3h31.1l0,22.4c0,8,6.1,12.7,19.8,12.7 c12.7,0,18.9-4.7,18.9-12.7v-23.8c0-5.9-2.4-10.4-9-16.3L33.1,78.7c-8.5-7.3-13.2-13-13.2-21.7V36.6c0-16.7,17.4-25,49-25 c34.9,0,49,8.3,49,23.8v21.7H86.8V36.3z"/><path class="st0" d="M386.7,40c0-16.7,12.7-28.7,54.7-28.7c41.9,0,54.7,12,54.7,28.7l0,115.5c0,16.7-12.7,28.7-54.7,28.7 c-41.9,0-54.7-12-54.7-28.7L386.7,40z M417.8,154.9c0,9.4,3.8,16,23.6,16c19.8,0,23.6-6.6,23.6-16V40.4c0-9.4-3.8-16-23.6-16 c-19.8,0-23.6,6.6-23.6,16V154.9z"/><path class="st0" d="M513.3,12.6h49.5c40.1,0,51.8,6.6,51.8,25.9l0,41.7c0,19.3-11.8,25.9-51.8,25.9h-18.4v76.6h-31.1V12.6z M559.4,93c14.2,0,24-1.9,24-10.6V36.4c0-8.7-9.9-10.6-24-10.6h-15.1V93H559.4z"/><path class="st0" d="M692.2,36c0-6.6-3.3-11.5-17.9-11.5c-14.6,0-17.9,4.9-17.9,11.5v17.9c0,5.4,1.9,10.8,7.1,15.3l49.5,42.4 c7.1,5.9,11.3,13.2,11.3,20.7v26.9c0,16-18.8,25-49.9,25c-34.4,0-50.9-7.8-50.9-25v-23.3h31.1v22.4c0,8,6.1,12.7,19.8,12.7 c12.7,0,18.8-4.7,18.8-12.7v-23.8c0-5.9-2.3-10.4-8.9-16.3l-45.7-39.8c-8.5-7.3-13.2-13-13.2-21.7V36.2c0-16.7,17.4-25,49-25 c34.9,0,49,8.2,49,23.8v21.7h-31.1V36z"/><path class="st0" d="M921.8,36c0-6.6-3.3-11.5-17.9-11.5c-14.6,0-17.9,4.9-17.9,11.5v17.9c0,5.4,1.9,10.8,7.1,15.3l49.5,42.4 c7.1,5.9,11.3,13.2,11.3,20.7v26.9c0,16-18.8,25-49.9,25c-34.4,0-50.9-7.8-50.9-25v-23.3h31.1l0,22.4c0,8,6.1,12.7,19.8,12.7 c12.7,0,18.8-4.7,18.8-12.7v-23.8c0-5.9-2.4-10.4-9-16.3L868,78.4c-8.5-7.3-13.2-13-13.2-21.7V36.2c0-16.7,17.4-25,49-25 c34.9,0,49,8.3,49,23.8v21.7h-31.1V36z"/><polygon class="st0" points="215.1,12.6 246.2,12.6 178.1,226.2 146.9,226.2 "/><polygon class="st0" points="166,145.3 123.8,13 155,13 181.5,96.4 "/><polygon class="st0" points="820.2,12.6 851.3,12.6 783.2,226.2 752,226.2 "/><polygon class="st0" points="771.2,144.9 729.1,12.6 760.2,12.6 786.8,96 "/><g><path class="st0" d="M367.6,182.8h0.1V38.6c0-19.3-11.8-25.9-51.8-25.9h-60l0,170.1H287l0-0.1l0-156.9h25.6 c14.1,0,24,1.9,24,10.6v146.3H367.6z"/></g><path class="st0" d="M965.9,33.6c0-11.4,9.2-19.7,20.1-19.7c10.8,0,20,8.4,20,19.7c0,11.5-9.2,19.9-20,19.9 C975.1,53.5,965.9,45.1,965.9,33.6z M986,50.2c9,0,16-7,16-16.6c0-9.4-7.1-16.4-16-16.4c-9.1,0-16.1,7.1-16.1,16.4 C969.9,43.2,976.9,50.2,986,50.2z M981.8,45.1h-3.5V22.3h8.7c5.4,0,8.1,2,8.1,6.5c0,4.1-2.6,5.9-5.9,6.3l6.5,10.1h-3.9l-6-9.9h-4 V45.1z M985.9,32.3c2.9,0,5.6-0.2,5.6-3.7c0-2.8-2.6-3.4-5-3.4h-4.7v7.1H985.9z"/></g></g></svg>